<svg id="Layer_1" data-name="Layer 1" xmlns="http://www.w3.org/2000/svg" viewBox="0 0 1059.55 583.06"><defs><style>.cls-1{fill:#fff;}.cls-2{font-size:41.12px;fill:#606161;font-family:RNSMiles-MediumItalic, RNS Miles;font-weight:500;font-style:italic;}.cls-3{letter-spacing:-0.01em;}.cls-4{letter-spacing:-0.03em;}.cls-5{letter-spacing:-0.01em;}.cls-6{letter-spacing:0em;}.cls-7{letter-spacing:-0.03em;}.cls-11,.cls-12,.cls-8{fill:#3d1449;}.cls-9{fill:#311539;}.cls-10{fill:#4b1b57;}.cls-11{font-size:134.43px;font-family:RNSMiles-XBold, RNS Miles;font-weight:700;}.cls-12{font-size:210.51px;font-family:RNSMiles-Black, RNS Miles;font-weight:800;}.cls-13{letter-spacing:0em;}</style></defs><rect class="cls-1" width="1059.55" height="583.06"/><text class="cls-2" transform="translate(421.47 428.39)"><tspan class="cls-3">CO</tspan><tspan x="63.82" y="0">NN</tspan><tspan class="cls-4" x="125.01" y="0">E</tspan><tspan x="146.97" y="0">CTI</tspan><tspan class="cls-5" x="212.56" y="0">N</tspan><tspan class="cls-6" x="242.75" y="0">G MARKETS </tspan><tspan class="cls-7" x="475.17" y="0">2</tspan><tspan x="496.88" y="0">4/7</tspan></text><polygon class="cls-8" points="164.56 262.59 224.99 191.62 224.99 132.94 271.41 132.94 313.96 76.59 118.94 76.59 75.55 132.03 165.36 132.03 164.56 262.59"/><polygon class="cls-9" points="501.93 312.75 239.88 312.75 197.5 368.85 452.26 368.85 501.93 312.75"/><polygon class="cls-10" points="197.5 368.85 164.61 314 347.21 76.33 405.32 95.54 197.5 368.85"/><polygon class="cls-8" points="345.98 506.72 405.32 429.5 405.32 95.54 345.98 173.57 345.98 506.72"/><text class="cls-11" transform="translate(419.05 191.54)">TWENTY</text><text class="cls-12" transform="translate(494.59 366.09)"><tspan class="cls-13">O</tspan><tspan x="179.99" y="0">UR</tspan></text></svg>